<svg width="32" height="32" viewBox="0 0 32 32" fill="none" xmlns="http://www.w3.org/2000/svg">
<path d="M3.33333 5.66666C3.33333 5.40144 3.43869 5.14709 3.62623 4.95955C3.81376 4.77201 4.06812 4.66666 4.33333 4.66666H5.07733C6.344 4.66666 7.104 5.51866 7.53733 6.31066C7.82667 6.83866 8.036 7.45066 8.2 8.00532C8.24436 8.00182 8.28884 8.00004 8.33333 7.99999H24.9973C26.104 7.99999 26.904 9.05866 26.6 10.124L24.1627 18.6693C23.9441 19.4358 23.4818 20.1102 22.8457 20.5904C22.2096 21.0706 21.4343 21.3305 20.6373 21.3307H12.7067C11.9033 21.3307 11.1222 21.0669 10.4834 20.5798C9.84453 20.0927 9.38333 19.4093 9.17067 18.6347L8.15733 14.9387L6.47733 9.27466L6.476 9.26399C6.268 8.50799 6.07333 7.79999 5.78267 7.27199C5.504 6.75866 5.28 6.66666 5.07867 6.66666H4.33333C4.06812 6.66666 3.81376 6.5613 3.62623 6.37376C3.43869 6.18623 3.33333 5.93187 3.33333 5.66666ZM10.0973 14.4533L11.0987 18.1053C11.2987 18.828 11.956 19.3307 12.7067 19.3307H20.6373C20.9996 19.3307 21.352 19.2126 21.6412 18.9944C21.9304 18.7762 22.1406 18.4697 22.24 18.1213L24.556 9.99999H8.78L10.0787 14.3827L10.0973 14.4533ZM14.6667 25.3333C14.6667 26.0406 14.3857 26.7188 13.8856 27.2189C13.3855 27.719 12.7072 28 12 28C11.2928 28 10.6145 27.719 10.1144 27.2189C9.61428 26.7188 9.33333 26.0406 9.33333 25.3333C9.33333 24.6261 9.61428 23.9478 10.1144 23.4477C10.6145 22.9476 11.2928 22.6667 12 22.6667C12.7072 22.6667 13.3855 22.9476 13.8856 23.4477C14.3857 23.9478 14.6667 24.6261 14.6667 25.3333ZM12.6667 25.3333C12.6667 25.1565 12.5964 24.9869 12.4714 24.8619C12.3464 24.7369 12.1768 24.6667 12 24.6667C11.8232 24.6667 11.6536 24.7369 11.5286 24.8619C11.4036 24.9869 11.3333 25.1565 11.3333 25.3333C11.3333 25.5101 11.4036 25.6797 11.5286 25.8047C11.6536 25.9298 11.8232 26 12 26C12.1768 26 12.3464 25.9298 12.4714 25.8047C12.5964 25.6797 12.6667 25.5101 12.6667 25.3333ZM24 25.3333C24 26.0406 23.719 26.7188 23.219 27.2189C22.7189 27.719 22.0406 28 21.3333 28C20.6261 28 19.9478 27.719 19.4477 27.2189C18.9476 26.7188 18.6667 26.0406 18.6667 25.3333C18.6667 24.6261 18.9476 23.9478 19.4477 23.4477C19.9478 22.9476 20.6261 22.6667 21.3333 22.6667C22.0406 22.6667 22.7189 22.9476 23.219 23.4477C23.719 23.9478 24 24.6261 24 25.3333ZM22 25.3333C22 25.1565 21.9298 24.9869 21.8047 24.8619C21.6797 24.7369 21.5101 24.6667 21.3333 24.6667C21.1565 24.6667 20.987 24.7369 20.8619 24.8619C20.7369 24.9869 20.6667 25.1565 20.6667 25.3333C20.6667 25.5101 20.7369 25.6797 20.8619 25.8047C20.987 25.9298 21.1565 26 21.3333 26C21.5101 26 21.6797 25.9298 21.8047 25.8047C21.9298 25.6797 22 25.5101 22 25.3333Z" fill="black"/>
</svg>
