<svg width="32" height="32" viewBox="0 0 32 32" fill="none" xmlns="http://www.w3.org/2000/svg">
<path d="M3.33334 5.66667C3.33334 5.40146 3.4387 5.1471 3.62624 4.95956C3.81377 4.77203 4.06813 4.66667 4.33334 4.66667H5.07734C6.34401 4.66667 7.10401 5.51867 7.53734 6.31067C7.82668 6.83867 8.03601 7.45067 8.20001 8.00534C8.24437 8.00184 8.28885 8.00006 8.33334 8.00001H24.9973C26.104 8.00001 26.904 9.05867 26.6 10.124L24.1627 18.6693C23.9441 19.4358 23.4818 20.1102 22.8457 20.5904C22.2096 21.0706 21.4344 21.3305 20.6373 21.3307H12.7067C11.9033 21.3307 11.1222 21.0669 10.4834 20.5798C9.84454 20.0928 9.38334 19.4094 9.17068 18.6347L8.15734 14.9387L6.47734 9.27467L6.47601 9.26401C6.26801 8.50801 6.07334 7.8 5.78268 7.27201C5.50401 6.75867 5.28001 6.66667 5.07868 6.66667H4.33334C4.06813 6.66667 3.81377 6.56132 3.62624 6.37378C3.4387 6.18624 3.33334 5.93189 3.33334 5.66667ZM10.0973 14.4533L11.0987 18.1053C11.2987 18.828 11.956 19.3307 12.7067 19.3307H20.6373C20.9996 19.3307 21.352 19.2126 21.6412 18.9944C21.9304 18.7762 22.1406 18.4697 22.24 18.1213L24.556 10H8.78001L10.0787 14.3827L10.0973 14.4533ZM14.6667 25.3333C14.6667 26.0406 14.3857 26.7189 13.8856 27.219C13.3855 27.7191 12.7073 28 12 28C11.2928 28 10.6145 27.7191 10.1144 27.219C9.6143 26.7189 9.33334 26.0406 9.33334 25.3333C9.33334 24.6261 9.6143 23.9478 10.1144 23.4477C10.6145 22.9476 11.2928 22.6667 12 22.6667C12.7073 22.6667 13.3855 22.9476 13.8856 23.4477C14.3857 23.9478 14.6667 24.6261 14.6667 25.3333ZM12.6667 25.3333C12.6667 25.1565 12.5964 24.987 12.4714 24.8619C12.3464 24.7369 12.1768 24.6667 12 24.6667C11.8232 24.6667 11.6536 24.7369 11.5286 24.8619C11.4036 24.987 11.3333 25.1565 11.3333 25.3333C11.3333 25.5102 11.4036 25.6797 11.5286 25.8047C11.6536 25.9298 11.8232 26 12 26C12.1768 26 12.3464 25.9298 12.4714 25.8047C12.5964 25.6797 12.6667 25.5102 12.6667 25.3333ZM24 25.3333C24 26.0406 23.7191 26.7189 23.219 27.219C22.7189 27.7191 22.0406 28 21.3333 28C20.6261 28 19.9478 27.7191 19.4477 27.219C18.9476 26.7189 18.6667 26.0406 18.6667 25.3333C18.6667 24.6261 18.9476 23.9478 19.4477 23.4477C19.9478 22.9476 20.6261 22.6667 21.3333 22.6667C22.0406 22.6667 22.7189 22.9476 23.219 23.4477C23.7191 23.9478 24 24.6261 24 25.3333ZM22 25.3333C22 25.1565 21.9298 24.987 21.8047 24.8619C21.6797 24.7369 21.5102 24.6667 21.3333 24.6667C21.1565 24.6667 20.987 24.7369 20.8619 24.8619C20.7369 24.987 20.6667 25.1565 20.6667 25.3333C20.6667 25.5102 20.7369 25.6797 20.8619 25.8047C20.987 25.9298 21.1565 26 21.3333 26C21.5102 26 21.6797 25.9298 21.8047 25.8047C21.9298 25.6797 22 25.5102 22 25.3333Z" fill="black"/>
<path d="M10.0973 14.4533L11.0987 18.1053C11.2987 18.828 11.956 19.3307 12.7067 19.3307H20.6373C20.9996 19.3307 21.352 19.2126 21.6412 18.9944C21.9304 18.7762 22.1406 18.4697 22.24 18.1213L24.556 10H8.78001L10.0787 14.3827L10.0973 14.4533Z" fill="#335AC0" fill-opacity="0.85"/>
<path d="M12.6667 25.3333C12.6667 25.1565 12.5964 24.987 12.4714 24.8619C12.3464 24.7369 12.1768 24.6667 12 24.6667C11.8232 24.6667 11.6536 24.7369 11.5286 24.8619C11.4036 24.987 11.3333 25.1565 11.3333 25.3333C11.3333 25.5102 11.4036 25.6797 11.5286 25.8047C11.6536 25.9298 11.8232 26 12 26C12.1768 26 12.3464 25.9298 12.4714 25.8047C12.5964 25.6797 12.6667 25.5102 12.6667 25.3333Z" fill="#335AC0" fill-opacity="0.85"/>
<path d="M22 25.3333C22 25.1565 21.9298 24.987 21.8047 24.8619C21.6797 24.7369 21.5102 24.6667 21.3333 24.6667C21.1565 24.6667 20.987 24.7369 20.8619 24.8619C20.7369 24.987 20.6667 25.1565 20.6667 25.3333C20.6667 25.5102 20.7369 25.6797 20.8619 25.8047C20.987 25.9298 21.1565 26 21.3333 26C21.5102 26 21.6797 25.9298 21.8047 25.8047C21.9298 25.6797 22 25.5102 22 25.3333Z" fill="#335AC0" fill-opacity="0.85"/>
</svg>
