<svg width="32" height="32" viewBox="0 0 32 32" fill="none" xmlns="http://www.w3.org/2000/svg">
<path d="M26.6667 13.3333C26.6667 12.9797 26.5262 12.6406 26.2761 12.3905C26.0261 12.1405 25.687 12 25.3333 12C24.9797 12 24.6406 12.1405 24.3905 12.3905C24.1405 12.6406 24 12.9797 24 13.3333H26.6667ZM8 13.3333C8 12.9797 7.85953 12.6406 7.60948 12.3905C7.35943 12.1405 7.02029 12 6.66667 12C6.31305 12 5.97391 12.1405 5.72386 12.3905C5.47381 12.6406 5.33333 12.9797 5.33333 13.3333H8ZM27.0573 16.9427C27.3088 17.1856 27.6456 17.3199 27.9952 17.3169C28.3448 17.3139 28.6792 17.1736 28.9264 16.9264C29.1736 16.6792 29.3139 16.3448 29.3169 15.9952C29.3199 15.6456 29.1855 15.3088 28.9427 15.0573L27.0573 16.9427ZM16 4.00001L16.9427 3.05734C16.6926 2.80738 16.3536 2.66696 16 2.66696C15.6464 2.66696 15.3074 2.80738 15.0573 3.05734L16 4.00001ZM3.05733 15.0573C2.92999 15.1803 2.82841 15.3275 2.75853 15.4901C2.68865 15.6528 2.65187 15.8278 2.65033 16.0048C2.6488 16.1818 2.68253 16.3574 2.74957 16.5213C2.81661 16.6851 2.91562 16.834 3.04081 16.9592C3.166 17.0844 3.31487 17.1834 3.47873 17.2504C3.64259 17.3175 3.81816 17.3512 3.9952 17.3497C4.17224 17.3481 4.3472 17.3114 4.50987 17.2415C4.67255 17.1716 4.81967 17.07 4.94267 16.9427L3.05733 15.0573ZM9.33333 29.3333H22.6667V26.6667H9.33333V29.3333ZM26.6667 25.3333V13.3333H24V25.3333H26.6667ZM8 25.3333V13.3333H5.33333V25.3333H8ZM28.9427 15.0573L16.9427 3.05734L15.0573 4.94268L27.0573 16.9427L28.9427 15.0573ZM15.0573 3.05734L3.05733 15.0573L4.94267 16.9427L16.9427 4.94268L15.0573 3.05734ZM22.6667 29.3333C23.7275 29.3333 24.745 28.9119 25.4951 28.1618C26.2452 27.4116 26.6667 26.3942 26.6667 25.3333H24C24 25.687 23.8595 26.0261 23.6095 26.2762C23.3594 26.5262 23.0203 26.6667 22.6667 26.6667V29.3333ZM9.33333 26.6667C8.97971 26.6667 8.64057 26.5262 8.39053 26.2762C8.14048 26.0261 8 25.687 8 25.3333H5.33333C5.33333 26.3942 5.75476 27.4116 6.50491 28.1618C7.25505 28.9119 8.27247 29.3333 9.33333 29.3333V26.6667Z" fill="black"/>
</svg>
