<svg width="32" height="32" viewBox="0 0 32 32" fill="none" xmlns="http://www.w3.org/2000/svg">
<path d="M9.33332 26.6667H22.6667C23.0203 26.6667 23.3594 26.5262 23.6095 26.2761C23.8595 26.0261 24 25.687 24 25.3333V13.8853L16 5.88533L7.99999 13.8853V25.3333C7.99999 25.687 8.14046 26.0261 8.39051 26.2761C8.64056 26.5262 8.9797 26.6667 9.33332 26.6667Z" fill="#335AC0" fill-opacity="0.85"/>
<path fill-rule="evenodd" clip-rule="evenodd" d="M26.2761 12.3905C26.2816 12.396 26.287 12.4015 26.2924 12.4071L28.9427 15.0573C29.1855 15.3088 29.3199 15.6456 29.3169 15.9952C29.3138 16.3448 29.1736 16.6792 28.9264 16.9264C28.6792 17.1736 28.3448 17.3139 27.9952 17.3169C27.6456 17.3199 27.3088 17.1855 27.0573 16.9427L26.6667 16.552V13.3333H24V13.8853L16 5.88533L7.99999 13.8853V25.3333C7.99999 25.687 8.14046 26.0261 8.39051 26.2761C8.64056 26.5262 8.9797 26.6667 9.33332 26.6667H22.6667C23.0203 26.6667 23.3594 26.5262 23.6095 26.2761C23.8595 26.0261 24 25.687 24 25.3333V13.8853L26.6667 16.552V25.3333C26.6667 26.3942 26.2452 27.4116 25.4951 28.1618C24.7449 28.9119 23.7275 29.3333 22.6667 29.3333H9.33332C8.27245 29.3333 7.25504 28.9119 6.50489 28.1618C5.75475 27.4116 5.33332 26.3942 5.33332 25.3333V16.552L4.94265 16.9427C4.81966 17.07 4.67253 17.1716 4.50986 17.2415C4.34719 17.3113 4.17223 17.3481 3.99519 17.3497C3.81815 17.3512 3.64258 17.3175 3.47871 17.2504C3.31485 17.1834 3.16598 17.0844 3.04079 16.9592C2.9156 16.834 2.8166 16.6851 2.74956 16.5213C2.68252 16.3574 2.64878 16.1818 2.65032 16.0048C2.65186 15.8278 2.68864 15.6528 2.75852 15.4901C2.8284 15.3275 2.92997 15.1803 3.05732 15.0573L5.7076 12.407C5.71296 12.4015 5.71838 12.396 5.72384 12.3905C5.72931 12.3851 5.73482 12.3796 5.74037 12.3743L15.0573 3.05733C15.3074 2.80737 15.6464 2.66695 16 2.66695C16.3535 2.66695 16.6926 2.80737 16.9427 3.05733L26.2596 12.3743C26.2651 12.3796 26.2707 12.3851 26.2761 12.3905Z" fill="black"/>
<path d="M26.6667 13.3333H24V13.8853L26.6667 16.552V13.3333Z" fill="black"/>
</svg>
