<svg width="28" height="32" viewBox="0 0 28 32" fill="none" xmlns="http://www.w3.org/2000/svg">
<path d="M28 16C28.004 18.3824 27.2954 20.7115 25.9653 22.688C24.8685 24.3239 23.3854 25.6644 21.6473 26.5909C19.9092 27.5174 17.9696 28.0014 16 28C14.0304 28.0014 12.0908 27.5174 10.3527 26.5909C8.61457 25.6644 7.13153 24.3239 6.03467 22.688C4.99031 21.1312 4.3252 19.3514 4.09267 17.4913C3.86015 15.6311 4.06666 13.7423 4.69566 11.9764C5.32467 10.2104 6.35866 8.61639 7.71476 7.32207C9.07085 6.02775 10.7113 5.06915 12.5047 4.52311C14.298 3.97708 16.1944 3.85879 18.0417 4.17774C19.889 4.49668 21.6358 5.24399 23.1423 6.35975C24.6487 7.47552 25.8728 8.9287 26.7164 10.6028C27.5599 12.2769 27.9996 14.1254 28 16Z" stroke="black" stroke-width="2"/>
<path d="M17.6667 12C17.6667 12.92 16.92 13.6666 16 13.6666V15.6666C16.9725 15.6666 17.9051 15.2803 18.5927 14.5927C19.2804 13.9051 19.6667 12.9724 19.6667 12H17.6667ZM16 13.6666C15.08 13.6666 14.3333 12.92 14.3333 12H12.3333C12.3333 12.9724 12.7196 13.9051 13.4073 14.5927C14.0949 15.2803 15.0275 15.6666 16 15.6666V13.6666ZM14.3333 12C14.3333 11.08 15.08 10.3333 16 10.3333V8.33331C15.0275 8.33331 14.0949 8.71962 13.4073 9.40725C12.7196 10.0949 12.3333 11.0275 12.3333 12H14.3333ZM16 10.3333C16.92 10.3333 17.6667 11.08 17.6667 12H19.6667C19.6667 11.0275 19.2804 10.0949 18.5927 9.40725C17.9051 8.71962 16.9725 8.33331 16 8.33331V10.3333ZM6.888 23.808L5.92933 23.5226L5.77333 24.0453L6.12933 24.4586L6.888 23.808ZM25.112 23.808L25.872 24.46L26.2267 24.0466L26.0707 23.5226L25.112 23.808ZM12 21H20V19H12V21ZM12 19C10.6361 19 9.30869 19.4402 8.21498 20.255C7.12126 21.0698 6.31967 22.2158 5.92933 23.5226L7.84667 24.0933C8.11404 23.1995 8.66258 22.4158 9.41081 21.8585C10.159 21.3012 11.0671 21.0001 12 21V19ZM16 27C14.4126 27.0018 12.8436 26.6592 11.4014 25.9958C9.95928 25.3323 8.67822 24.3639 7.64667 23.1573L6.12933 24.4586C7.34862 25.884 8.86246 27.0293 10.5665 27.813C12.2706 28.5968 14.1243 29.0018 16 29V27ZM20 21C21.96 21 23.62 22.304 24.1533 24.0933L26.0707 23.5226C25.6803 22.2158 24.8787 21.0698 23.785 20.255C22.6913 19.4402 21.3639 19 20 19V21ZM24.3533 23.1573C23.3218 24.3639 22.0407 25.3323 20.5986 25.9958C19.1564 26.6592 17.5874 27.0018 16 27V29C17.8757 29.0018 19.7294 28.5968 21.4335 27.813C23.1375 27.0293 24.6527 25.8853 25.872 24.46L24.3533 23.1573Z" fill="black"/>
</svg>
